<mxfile host="app.diagrams.net" modified="2023-08-20T14:50:10.727Z" agent="Mozilla/5.0 (Windows NT 10.0; Win64; x64) AppleWebKit/537.36 (KHTML, like Gecko) Chrome/115.0.0.0 Safari/537.36" etag="NJsnRP2bowKCRIMlFFEm" version="21.6.8" type="device">
  <diagram name="Page-1" id="Xg4FVXX_yjIHeJf8CN_3">
    <mxGraphModel dx="1050" dy="566" grid="1" gridSize="10" guides="1" tooltips="1" connect="1" arrows="1" fold="1" page="1" pageScale="1" pageWidth="850" pageHeight="1100" math="0" shadow="0">
      <root>
        <mxCell id="0" />
        <mxCell id="1" parent="0" />
        <mxCell id="x3r_jebnCsLiNzPfLXYe-1" value="&lt;p class=&quot;MsoNormal&quot;&gt;&lt;span style=&quot;font-family: &amp;quot;Times New Roman&amp;quot;;&quot;&gt;&lt;font style=&quot;font-size: 21px;&quot;&gt;Following diagram shows the details of the Inter Car-Pooling&amp;nbsp; &amp;nbsp; &amp;nbsp; &amp;nbsp; &amp;nbsp; &amp;nbsp; &amp;nbsp; &amp;nbsp; &amp;nbsp; &amp;nbsp; &amp;nbsp; &amp;nbsp; &amp;nbsp; &amp;nbsp; &amp;nbsp; &amp;nbsp; &amp;nbsp; &amp;nbsp; &amp;nbsp; &amp;nbsp; &amp;nbsp; &amp;nbsp; &amp;nbsp; &amp;nbsp;System architecture.&lt;/font&gt;&lt;/span&gt;&lt;span style=&quot;mso-spacerun:&#39;yes&#39;;font-family:&#39;Times New Roman&#39;;font-size:14.0000pt;&quot;&gt;&lt;/span&gt;&lt;/p&gt;" style="text;whiteSpace=wrap;html=1;labelBackgroundColor=none;" parent="1" vertex="1">
          <mxGeometry x="180" y="20" width="560" height="90" as="geometry" />
        </mxCell>
        <mxCell id="x3r_jebnCsLiNzPfLXYe-2" value="&lt;font style=&quot;font-size: 23px;&quot;&gt;&lt;b&gt;HTML/ AJAX/ Java Script&lt;/b&gt;&lt;/font&gt;" style="rounded=0;whiteSpace=wrap;html=1;align=center;labelBackgroundColor=none;" parent="1" vertex="1">
          <mxGeometry x="315" y="120" width="290" height="90" as="geometry" />
        </mxCell>
        <mxCell id="x3r_jebnCsLiNzPfLXYe-3" value="&lt;font style=&quot;font-size: 15px;&quot;&gt;Browser supporting AJAX&lt;/font&gt;" style="text;html=1;align=center;verticalAlign=middle;resizable=0;points=[];autosize=1;perimeterSpacing=0;labelBackgroundColor=none;" parent="1" vertex="1">
          <mxGeometry x="605" y="150" width="190" height="30" as="geometry" />
        </mxCell>
        <mxCell id="x3r_jebnCsLiNzPfLXYe-6" value="Text" style="text;strokeColor=none;align=center;fillColor=none;html=1;verticalAlign=middle;whiteSpace=wrap;rounded=0;labelBackgroundColor=none;" parent="1" vertex="1">
          <mxGeometry x="390" y="280" width="60" height="30" as="geometry" />
        </mxCell>
        <mxCell id="x3r_jebnCsLiNzPfLXYe-8" value="&lt;font style=&quot;font-size: 16px;&quot;&gt;First Tier&lt;/font&gt;" style="text;html=1;strokeColor=none;fillColor=none;align=center;verticalAlign=middle;whiteSpace=wrap;rounded=0;labelBackgroundColor=none;" parent="1" vertex="1">
          <mxGeometry x="70" y="130" width="130" height="50" as="geometry" />
        </mxCell>
        <mxCell id="x3r_jebnCsLiNzPfLXYe-9" value="" style="rounded=0;whiteSpace=wrap;html=1;labelBackgroundColor=none;" parent="1" vertex="1">
          <mxGeometry x="320" y="260" width="290" height="60" as="geometry" />
        </mxCell>
        <mxCell id="x3r_jebnCsLiNzPfLXYe-11" value="" style="rounded=0;whiteSpace=wrap;html=1;labelBackgroundColor=none;" parent="1" vertex="1">
          <mxGeometry x="320" y="440" width="290" height="80" as="geometry" />
        </mxCell>
        <mxCell id="x3r_jebnCsLiNzPfLXYe-12" value="" style="shape=cylinder3;whiteSpace=wrap;html=1;boundedLbl=1;backgroundOutline=1;size=15;labelBackgroundColor=none;" parent="1" vertex="1">
          <mxGeometry x="395" y="580" width="140" height="140" as="geometry" />
        </mxCell>
        <mxCell id="x3r_jebnCsLiNzPfLXYe-13" value="" style="endArrow=classic;html=1;rounded=0;entryX=0.677;entryY=0.033;entryDx=0;entryDy=0;entryPerimeter=0;exitX=0.694;exitY=1.009;exitDx=0;exitDy=0;exitPerimeter=0;labelBackgroundColor=none;fontColor=default;" parent="1" source="x3r_jebnCsLiNzPfLXYe-2" target="x3r_jebnCsLiNzPfLXYe-9" edge="1">
          <mxGeometry width="50" height="50" relative="1" as="geometry">
            <mxPoint x="520" y="220" as="sourcePoint" />
            <mxPoint x="460" y="290" as="targetPoint" />
            <Array as="points" />
          </mxGeometry>
        </mxCell>
        <mxCell id="x3r_jebnCsLiNzPfLXYe-14" value="" style="endArrow=classic;html=1;rounded=0;labelBackgroundColor=none;fontColor=default;" parent="1" source="x3r_jebnCsLiNzPfLXYe-10" target="x3r_jebnCsLiNzPfLXYe-9" edge="1">
          <mxGeometry width="50" height="50" relative="1" as="geometry">
            <mxPoint x="410" y="340" as="sourcePoint" />
            <mxPoint x="460" y="290" as="targetPoint" />
          </mxGeometry>
        </mxCell>
        <mxCell id="x3r_jebnCsLiNzPfLXYe-15" value="" style="endArrow=classic;html=1;rounded=0;labelBackgroundColor=none;fontColor=default;" parent="1" edge="1">
          <mxGeometry width="50" height="50" relative="1" as="geometry">
            <mxPoint x="395" y="260" as="sourcePoint" />
            <mxPoint x="395" y="210" as="targetPoint" />
            <Array as="points">
              <mxPoint x="395" y="250" />
              <mxPoint x="395" y="240" />
            </Array>
          </mxGeometry>
        </mxCell>
        <mxCell id="x3r_jebnCsLiNzPfLXYe-18" value="" style="endArrow=classic;html=1;rounded=0;exitX=0.259;exitY=0;exitDx=0;exitDy=0;exitPerimeter=0;labelBackgroundColor=none;fontColor=default;" parent="1" source="x3r_jebnCsLiNzPfLXYe-11" edge="1">
          <mxGeometry width="50" height="50" relative="1" as="geometry">
            <mxPoint x="395" y="430" as="sourcePoint" />
            <mxPoint x="395" y="380" as="targetPoint" />
            <Array as="points">
              <mxPoint x="395" y="420" />
              <mxPoint x="395" y="410" />
              <mxPoint x="395" y="400" />
            </Array>
          </mxGeometry>
        </mxCell>
        <mxCell id="x3r_jebnCsLiNzPfLXYe-19" value="" style="endArrow=classic;html=1;rounded=0;entryX=0.677;entryY=0.033;entryDx=0;entryDy=0;entryPerimeter=0;exitX=0.691;exitY=1.02;exitDx=0;exitDy=0;exitPerimeter=0;labelBackgroundColor=none;fontColor=default;" parent="1" source="x3r_jebnCsLiNzPfLXYe-10" edge="1">
          <mxGeometry width="50" height="50" relative="1" as="geometry">
            <mxPoint x="520" y="390" as="sourcePoint" />
            <mxPoint x="520" y="441" as="targetPoint" />
            <Array as="points" />
          </mxGeometry>
        </mxCell>
        <mxCell id="x3r_jebnCsLiNzPfLXYe-20" value="" style="endArrow=none;html=1;rounded=0;labelBackgroundColor=none;fontColor=default;" parent="1" edge="1">
          <mxGeometry width="50" height="50" relative="1" as="geometry">
            <mxPoint x="300" y="210" as="sourcePoint" />
            <mxPoint x="300" y="120" as="targetPoint" />
            <Array as="points">
              <mxPoint x="250" y="170" />
              <mxPoint x="180" y="160" />
              <mxPoint x="250" y="150" />
            </Array>
          </mxGeometry>
        </mxCell>
        <mxCell id="x3r_jebnCsLiNzPfLXYe-24" value="" style="endArrow=none;html=1;rounded=0;labelBackgroundColor=none;fontColor=default;" parent="1" source="x3r_jebnCsLiNzPfLXYe-10" edge="1">
          <mxGeometry width="50" height="50" relative="1" as="geometry">
            <mxPoint x="410" y="380" as="sourcePoint" />
            <mxPoint x="460" y="330" as="targetPoint" />
          </mxGeometry>
        </mxCell>
        <mxCell id="x3r_jebnCsLiNzPfLXYe-25" value="" style="endArrow=none;html=1;rounded=0;labelBackgroundColor=none;fontColor=default;" parent="1" target="x3r_jebnCsLiNzPfLXYe-10" edge="1">
          <mxGeometry width="50" height="50" relative="1" as="geometry">
            <mxPoint x="410" y="380" as="sourcePoint" />
            <mxPoint x="460" y="330" as="targetPoint" />
          </mxGeometry>
        </mxCell>
        <mxCell id="x3r_jebnCsLiNzPfLXYe-10" value="" style="rounded=0;whiteSpace=wrap;html=1;labelBackgroundColor=none;" parent="1" vertex="1">
          <mxGeometry x="320" y="320" width="290" height="60" as="geometry" />
        </mxCell>
        <mxCell id="x3r_jebnCsLiNzPfLXYe-26" value="" style="endArrow=none;html=1;rounded=0;labelBackgroundColor=none;fontColor=default;" parent="1" edge="1">
          <mxGeometry width="50" height="50" relative="1" as="geometry">
            <mxPoint x="310" y="370" as="sourcePoint" />
            <mxPoint x="310" y="280" as="targetPoint" />
            <Array as="points">
              <mxPoint x="260" y="330" />
              <mxPoint x="190" y="320" />
              <mxPoint x="260" y="310" />
            </Array>
          </mxGeometry>
        </mxCell>
        <mxCell id="x3r_jebnCsLiNzPfLXYe-27" value="" style="endArrow=none;html=1;rounded=0;labelBackgroundColor=none;fontColor=default;" parent="1" edge="1">
          <mxGeometry width="50" height="50" relative="1" as="geometry">
            <mxPoint x="310" y="525" as="sourcePoint" />
            <mxPoint x="310" y="435" as="targetPoint" />
            <Array as="points">
              <mxPoint x="260" y="485" />
              <mxPoint x="190" y="475" />
              <mxPoint x="260" y="465" />
            </Array>
          </mxGeometry>
        </mxCell>
        <mxCell id="x3r_jebnCsLiNzPfLXYe-28" value="&lt;font style=&quot;font-size: 15px;&quot;&gt;Second Tier&lt;/font&gt;" style="text;html=1;align=center;verticalAlign=middle;resizable=0;points=[];autosize=1;strokeColor=none;fillColor=none;labelBackgroundColor=none;" parent="1" vertex="1">
          <mxGeometry x="85" y="300" width="100" height="30" as="geometry" />
        </mxCell>
        <mxCell id="x3r_jebnCsLiNzPfLXYe-29" value="&lt;font style=&quot;font-size: 16px;&quot;&gt;Third Tier&lt;/font&gt;" style="text;html=1;strokeColor=none;fillColor=none;align=center;verticalAlign=middle;whiteSpace=wrap;rounded=0;labelBackgroundColor=none;" parent="1" vertex="1">
          <mxGeometry x="92.5" y="460" width="85" height="30" as="geometry" />
        </mxCell>
        <mxCell id="x3r_jebnCsLiNzPfLXYe-30" value="&lt;font size=&quot;1&quot; style=&quot;&quot;&gt;&lt;b style=&quot;font-size: 17px;&quot;&gt;JSP&lt;/b&gt;&lt;/font&gt;" style="text;html=1;strokeColor=none;fillColor=none;align=center;verticalAlign=middle;whiteSpace=wrap;rounded=0;labelBackgroundColor=none;" parent="1" vertex="1">
          <mxGeometry x="400" y="260" width="120" height="60" as="geometry" />
        </mxCell>
        <mxCell id="x3r_jebnCsLiNzPfLXYe-31" value="&lt;font size=&quot;1&quot; style=&quot;&quot;&gt;&lt;b style=&quot;font-size: 17px;&quot;&gt;Servlet and java Beans&lt;/b&gt;&lt;/font&gt;" style="text;html=1;strokeColor=none;fillColor=none;align=center;verticalAlign=middle;whiteSpace=wrap;rounded=0;labelBackgroundColor=none;" parent="1" vertex="1">
          <mxGeometry x="280" y="330" width="380" height="50" as="geometry" />
        </mxCell>
        <mxCell id="x3r_jebnCsLiNzPfLXYe-32" value="&lt;font style=&quot;font-size: 17px;&quot;&gt;&lt;b&gt;DAO(Data Access Object)&lt;br&gt;and JDBC&lt;/b&gt;&lt;/font&gt;" style="text;html=1;strokeColor=none;fillColor=none;align=center;verticalAlign=middle;whiteSpace=wrap;rounded=0;labelBackgroundColor=none;" parent="1" vertex="1">
          <mxGeometry x="350" y="440" width="240" height="80" as="geometry" />
        </mxCell>
        <mxCell id="x3r_jebnCsLiNzPfLXYe-33" value="" style="endArrow=classic;html=1;rounded=0;exitX=0.259;exitY=0;exitDx=0;exitDy=0;exitPerimeter=0;labelBackgroundColor=none;fontColor=default;" parent="1" edge="1">
          <mxGeometry width="50" height="50" relative="1" as="geometry">
            <mxPoint x="440" y="580" as="sourcePoint" />
            <mxPoint x="440" y="520" as="targetPoint" />
            <Array as="points">
              <mxPoint x="440" y="560" />
              <mxPoint x="440" y="550" />
              <mxPoint x="440" y="540" />
            </Array>
          </mxGeometry>
        </mxCell>
        <mxCell id="x3r_jebnCsLiNzPfLXYe-35" value="" style="endArrow=classic;html=1;rounded=0;entryX=0.677;entryY=0.033;entryDx=0;entryDy=0;entryPerimeter=0;exitX=0.691;exitY=1.02;exitDx=0;exitDy=0;exitPerimeter=0;labelBackgroundColor=none;fontColor=default;" parent="1" edge="1">
          <mxGeometry width="50" height="50" relative="1" as="geometry">
            <mxPoint x="480" y="520" as="sourcePoint" />
            <mxPoint x="480" y="580" as="targetPoint" />
            <Array as="points" />
          </mxGeometry>
        </mxCell>
        <mxCell id="x3r_jebnCsLiNzPfLXYe-36" value="&lt;font style=&quot;font-size: 15px;&quot;&gt;&lt;b&gt;MySql&lt;br&gt;&amp;nbsp;Database&lt;/b&gt;&lt;/font&gt;" style="text;html=1;strokeColor=none;fillColor=none;align=center;verticalAlign=middle;whiteSpace=wrap;rounded=0;" parent="1" vertex="1">
          <mxGeometry x="410" y="630" width="110" height="50" as="geometry" />
        </mxCell>
        <mxCell id="x3r_jebnCsLiNzPfLXYe-37" value="&lt;font style=&quot;font-size: 14px;&quot;&gt;Server UI&lt;/font&gt;" style="text;html=1;strokeColor=none;fillColor=none;align=center;verticalAlign=middle;whiteSpace=wrap;rounded=0;" parent="1" vertex="1">
          <mxGeometry x="630" y="270" width="160" height="40" as="geometry" />
        </mxCell>
        <mxCell id="x3r_jebnCsLiNzPfLXYe-38" value="&lt;font style=&quot;font-size: 14px;&quot;&gt;Server processing&lt;/font&gt;" style="text;html=1;strokeColor=none;fillColor=none;align=center;verticalAlign=middle;whiteSpace=wrap;rounded=0;" parent="1" vertex="1">
          <mxGeometry x="605" y="330" width="210" height="40" as="geometry" />
        </mxCell>
        <mxCell id="x3r_jebnCsLiNzPfLXYe-39" value="" style="endArrow=classic;startArrow=classic;html=1;rounded=0;entryX=1;entryY=0;entryDx=0;entryDy=0;exitX=1;exitY=0;exitDx=0;exitDy=0;" parent="1" source="x3r_jebnCsLiNzPfLXYe-10" target="x3r_jebnCsLiNzPfLXYe-9" edge="1">
          <mxGeometry width="50" height="50" relative="1" as="geometry">
            <mxPoint x="630" y="320" as="sourcePoint" />
            <mxPoint x="630" y="260" as="targetPoint" />
            <Array as="points">
              <mxPoint x="670" y="290" />
            </Array>
          </mxGeometry>
        </mxCell>
        <mxCell id="x3r_jebnCsLiNzPfLXYe-40" value="" style="endArrow=classic;startArrow=classic;html=1;rounded=0;exitX=1;exitY=1;exitDx=0;exitDy=0;" parent="1" source="x3r_jebnCsLiNzPfLXYe-10" edge="1">
          <mxGeometry width="50" height="50" relative="1" as="geometry">
            <mxPoint x="620" y="380" as="sourcePoint" />
            <mxPoint x="610" y="320" as="targetPoint" />
            <Array as="points">
              <mxPoint x="650" y="350" />
            </Array>
          </mxGeometry>
        </mxCell>
      </root>
    </mxGraphModel>
  </diagram>
</mxfile>
